<?xml version="1.0" standalone="no"?>
<!DOCTYPE svg PUBLIC "-//W3C//DTD SVG 20010904//EN"
 "http://www.w3.org/TR/2001/REC-SVG-20010904/DTD/svg10.dtd">
<svg version="1.0" xmlns="http://www.w3.org/2000/svg"
 width="3000.000000pt" height="3000.000000pt" viewBox="0 0 3000.000000 3000.000000"
 preserveAspectRatio="xMidYMid meet">
<metadata>
Created by potrace 1.14, written by Peter Selinger 2001-2017
</metadata>
<g transform="translate(0.000000,3000.000000) scale(0.100000,-0.100000)"
fill="#000000" stroke="none">
<path d="M19930 25547 c36 -18 36 -41 -2 -58 -31 -15 -33 -15 -54 10 l-22 25
-41 -18 c-32 -15 -44 -16 -55 -7 -25 21 -115 16 -147 -8 -15 -12 -39 -21 -51
-21 -25 0 -65 -23 -85 -50 -10 -13 -13 -10 -19 18 -9 43 -41 51 -89 23 l-35
-20 -21 42 c-27 52 -36 58 -74 53 -100 -12 -139 -63 -138 -183 0 -40 -3 -73
-7 -73 -14 0 -58 56 -64 83 -4 19 -11 25 -19 20 -7 -4 -68 -8 -135 -8 -118 0
-125 -1 -143 -24 -12 -15 -17 -31 -13 -43 10 -33 52 -120 83 -175 17 -29 26
-55 21 -58 -5 -3 -36 8 -68 24 l-59 30 -37 -30 c-53 -44 -96 -112 -98 -154 -1
-29 -4 -35 -17 -29 -39 16 -56 15 -71 -7 -24 -37 -73 -83 -103 -98 -15 -8 -37
-31 -48 -50 -20 -34 -20 -38 -5 -64 17 -30 14 -47 -7 -47 -23 0 -64 -46 -80
-90 -10 -25 -19 -74 -21 -109 -6 -77 9 -108 68 -149 l40 -27 -31 -3 c-24 -2
-34 -10 -44 -35 -7 -18 -21 -43 -30 -57 -15 -22 -21 -48 -33 -147 -2 -12 0
-27 5 -34 4 -8 -2 -24 -16 -41 -20 -23 -23 -36 -19 -76 3 -26 6 -58 8 -72 1
-14 5 -30 8 -35 3 -6 9 -25 13 -42 5 -23 12 -33 26 -33 15 0 19 -7 19 -37 0
-47 31 -100 68 -116 33 -15 122 -96 122 -111 0 -6 -16 -22 -36 -36 -86 -61
-96 -72 -89 -99 8 -31 38 -65 83 -93 33 -20 86 -21 135 -2 12 4 16 2 13 -7
-17 -53 -15 -68 10 -98 16 -19 35 -31 51 -31 19 0 24 -5 23 -22 -1 -13 -2 -30
-1 -38 1 -22 63 -93 70 -82 3 6 15 12 26 14 15 2 25 -8 43 -42 27 -54 86 -86
128 -70 38 15 44 12 44 -18 0 -23 7 -31 39 -45 55 -25 103 -24 139 1 16 12 33
22 36 22 9 0 7 -52 -4 -90 -9 -31 -7 -37 12 -53 27 -21 77 -18 126 8 28 14 40
15 75 6 23 -6 51 -11 62 -11 103 2 165 -3 212 -15 31 -8 59 -12 64 -9 5 2 19
-2 33 -11 21 -14 31 -14 68 -4 24 7 51 11 61 10 30 -4 81 18 95 40 12 19 17
34 26 76 4 21 15 26 30 14 25 -21 77 -17 98 8 10 13 15 28 12 33 -13 21 42 -5
63 -30 19 -23 24 -24 40 -12 52 41 98 86 96 95 -1 5 16 21 37 34 22 14 42 32
45 41 3 9 15 22 28 29 30 17 59 57 67 95 7 32 7 32 71 19 30 -6 40 14 34 73
-4 41 4 48 40 34 32 -12 59 0 95 43 30 34 40 75 26 99 -7 12 -7 27 0 47 11 28
10 30 -27 47 -22 9 -39 20 -39 23 0 4 20 12 44 19 37 9 52 9 87 -3 23 -8 45
-15 50 -15 8 0 22 54 24 100 1 14 3 30 3 37 1 7 22 32 46 56 56 55 69 105 37
147 -25 34 -26 40 -6 40 8 0 25 5 39 11 29 13 44 75 27 108 -9 17 -7 22 17 33
56 29 72 44 83 77 10 29 9 36 -8 53 -11 11 -39 22 -62 25 -37 5 -41 8 -41 33
0 15 -7 33 -15 40 -22 18 -19 26 15 40 16 7 32 20 35 29 9 31 -6 76 -34 101
-27 24 -37 43 -46 90 -6 30 -42 57 -97 71 -27 7 -48 16 -48 21 0 4 27 21 60
38 33 17 70 40 81 51 19 19 19 21 3 49 -32 52 -111 72 -224 55 -37 -5 -97 -26
-177 -62 -7 -3 -13 0 -13 6 0 6 4 11 9 11 5 0 16 6 23 13 7 6 38 32 68 57 51
41 108 98 111 110 0 3 2 16 4 30 1 14 6 37 9 51 7 26 7 27 -69 87 -6 5 -18 13
-27 18 -16 9 -16 12 -3 38 14 26 14 30 -2 42 -23 17 -19 16 -78 19 -27 1 -58
-2 -68 -7 -14 -7 -24 -5 -41 11 -12 12 -28 21 -34 21 -6 0 -21 17 -32 38 -11
20 -26 45 -33 54 -20 25 -86 50 -113 44 -14 -4 -39 2 -63 15 -37 19 -41 19
-70 4 -29 -15 -31 -14 -31 3 0 11 -11 34 -25 53 -13 19 -40 57 -59 85 -38 57
-70 84 -101 84 -18 0 -17 -2 5 -13z"/>
<path d="M14976 24583 c-10 -3 -462 -300 -1005 -661 -542 -360 -1227 -815
-1521 -1010 -294 -196 -890 -592 -1325 -880 -434 -289 -1042 -693 -1350 -897
-308 -204 -945 -627 -1415 -940 -470 -312 -1041 -691 -1268 -842 -449 -298
-442 -291 -436 -382 1 -25 5 -113 8 -196 15 -377 20 -497 25 -543 0 -7 13 -24
27 -37 28 -26 65 -32 106 -16 13 5 186 116 384 247 197 130 469 310 604 399
135 89 367 242 515 340 149 98 387 256 530 350 143 94 409 270 590 390 182
120 427 282 545 360 118 78 377 249 575 380 198 131 437 289 530 350 94 61
472 311 840 555 369 243 766 506 884 584 118 77 391 258 608 401 444 294 960
635 1323 874 134 89 250 159 256 157 12 -4 446 -295 914 -611 284 -192 717
-483 930 -625 102 -68 187 -127 188 -132 2 -4 8 -8 14 -8 6 0 31 -15 57 -33
25 -19 192 -132 371 -252 418 -280 1107 -745 1539 -1036 117 -79 224 -151 237
-159 28 -18 354 -238 914 -615 234 -157 576 -387 760 -511 184 -124 486 -327
670 -451 184 -124 513 -345 730 -491 217 -146 458 -308 534 -360 156 -106 179
-115 223 -97 42 18 47 34 57 195 4 58 9 121 11 140 2 19 7 85 11 145 4 61 8
126 10 145 1 19 5 78 9 130 3 52 8 104 10 115 6 40 -21 80 -86 124 -35 24
-444 298 -909 609 -465 311 -1142 764 -1505 1007 l-660 442 -3 572 -2 571
-545 0 -545 0 0 -205 0 -206 -757 507 c-417 279 -812 544 -879 588 -66 45
-128 86 -137 91 -14 9 -312 208 -1687 1130 -240 160 -447 294 -460 297 -14 3
-33 3 -44 1z m860 -728 c450 -302 1145 -767 1544 -1033 399 -267 982 -657
1295 -867 314 -210 937 -627 1385 -927 448 -300 1072 -717 1385 -927 314 -210
798 -533 1078 -719 l507 -337 -5 -100 c-4 -55 -8 -118 -10 -140 -2 -22 -7 -87
-11 -145 -4 -58 -8 -118 -10 -135 -1 -16 -3 -54 -3 -83 l-1 -53 -247 167
c-137 92 -399 269 -583 392 -184 124 -423 284 -530 357 -107 72 -361 243 -565
380 -203 137 -451 303 -550 370 -99 67 -326 220 -505 340 -179 120 -433 291
-565 380 -613 413 -713 480 -899 606 -109 74 -209 141 -222 149 -13 8 -135 90
-271 182 -137 92 -394 265 -573 385 -454 306 -1029 692 -1260 848 -270 182
-735 495 -977 658 -111 74 -211 138 -222 142 -11 3 -34 0 -53 -8 -28 -12 -774
-499 -803 -525 -6 -5 -15 -11 -21 -13 -5 -2 -95 -61 -199 -130 -249 -165 -832
-550 -1065 -704 -184 -121 -834 -551 -912 -603 -22 -15 -48 -32 -57 -37 -9 -6
-95 -62 -191 -126 -96 -64 -296 -196 -445 -294 -490 -324 -816 -539 -1120
-740 -165 -109 -439 -290 -610 -403 -170 -112 -476 -314 -680 -449 -784 -518
-1050 -694 -1305 -862 -146 -96 -366 -242 -489 -323 -123 -82 -225 -147 -226
-146 -4 4 -13 179 -21 405 l-6 192 973 647 c536 356 1226 814 1534 1019 308
204 902 599 1320 877 418 277 974 646 1235 820 1095 726 2506 1665 2795 1858
171 115 317 207 326 206 9 -2 384 -250 835 -551z m4035 -1655 c4 -99 3 -850
-1 -850 -3 0 -178 116 -390 258 l-384 258 -1 174 c-1 96 0 177 1 180 1 3 176
5 388 5 l386 0 1 -25z"/>
<path d="M3357 18229 c-90 -22 -79 -20 -261 -50 -106 -17 -145 -28 -164 -44
l-26 -22 25 -16 c13 -8 38 -18 54 -20 106 -16 168 -54 181 -110 10 -42 12
-2017 2 -2081 -11 -76 -57 -114 -163 -136 -30 -6 -64 -19 -75 -28 -19 -16 -19
-19 -5 -39 14 -20 22 -22 73 -18 282 22 460 22 663 0 45 -5 60 -3 73 10 36 36
16 59 -68 74 -74 14 -137 48 -156 86 -13 26 -15 180 -16 1201 -1 644 -5 1181
-9 1193 -8 26 -25 26 -128 0z"/>
<path d="M17548 18075 c-12 -12 -1104 -20 -1429 -10 -214 6 -237 5 -253 -10
-12 -13 -14 -20 -6 -31 11 -12 33 -18 170 -44 106 -20 154 -74 170 -189 10
-72 10 -1746 0 -1828 -16 -130 -73 -182 -226 -210 -58 -10 -96 -22 -109 -35
-20 -19 -20 -19 3 -38 21 -18 34 -19 145 -12 144 8 643 8 805 -1 105 -5 115
-4 133 14 19 19 20 22 4 39 -10 11 -37 22 -64 25 -25 4 -62 8 -81 11 -108 14
-165 48 -200 119 l-25 50 0 455 0 455 141 -1 c114 -1 154 -5 210 -22 135 -42
206 -120 245 -268 12 -46 30 -91 39 -99 16 -15 19 -14 35 1 16 16 17 38 11
238 -4 122 -6 291 -5 376 1 85 1 183 2 218 0 68 -16 98 -46 86 -15 -5 -57
-119 -57 -154 0 -30 -63 -141 -99 -173 -81 -73 -171 -100 -371 -112 l-115 -7
2 432 c0 238 4 457 7 487 15 134 18 136 296 137 271 1 416 -22 540 -84 98 -49
152 -114 200 -240 19 -47 38 -91 43 -97 12 -16 43 -17 52 -2 8 11 8 63 2 94
-8 36 -18 159 -22 265 -4 142 -7 147 -85 157 -19 2 -40 6 -47 8 -6 2 -13 2
-15 0z"/>
<path d="M885 18057 c-29 -22 -5 -44 63 -57 129 -24 158 -32 190 -53 36 -24
67 -75 78 -128 10 -49 11 -1804 2 -1867 -19 -123 -75 -173 -225 -199 -113 -19
-150 -49 -98 -80 14 -8 55 -10 140 -5 134 7 577 8 788 1 127 -4 140 -2 152 15
8 10 12 23 9 28 -11 18 -62 36 -119 41 -165 16 -233 63 -254 180 -6 36 -10
216 -8 480 l2 422 135 -1 c160 -1 241 -19 317 -69 69 -46 116 -119 144 -220
11 -44 28 -88 37 -98 15 -16 16 -16 35 0 18 17 19 28 11 258 -4 132 -6 299 -4
370 5 252 5 265 -12 282 -34 34 -46 14 -102 -180 -22 -73 -84 -150 -151 -188
-62 -34 -166 -56 -310 -65 l-110 -6 2 403 c2 553 4 593 36 626 34 34 366 38
587 8 237 -32 383 -148 435 -345 20 -73 68 -95 83 -37 5 17 5 46 1 62 -11 43
-21 154 -24 274 -4 121 -14 147 -62 156 -20 3 -241 3 -492 -1 -565 -9 -713 -9
-1016 0 -202 6 -243 5 -260 -7z"/>
<path d="M21734 17638 c-11 -13 -46 -63 -79 -112 -69 -103 -163 -201 -270
-282 -109 -81 -102 -103 32 -106 l70 -1 2 -581 c0 -320 3 -594 5 -611 19 -150
90 -248 211 -289 67 -23 233 -31 324 -16 140 23 289 121 304 198 6 31 -16 72
-39 72 -9 0 -45 -29 -80 -65 -85 -86 -112 -99 -199 -99 -71 0 -124 18 -153 53
-20 24 -50 92 -58 131 -4 19 -7 299 -8 621 l-1 587 175 0 c199 -1 238 5 249
35 21 56 -16 79 -124 77 -38 -1 -123 -1 -187 -1 l-118 1 0 193 c0 137 -3 196
-12 205 -17 17 -22 15 -44 -10z"/>
<path d="M20170 17289 c-36 -11 -137 -35 -225 -55 -190 -43 -225 -55 -225 -83
0 -28 25 -38 98 -40 109 -2 178 -54 203 -153 20 -79 20 -1069 0 -1116 -17 -40
-76 -76 -149 -91 -30 -6 -62 -16 -73 -21 -25 -14 -24 -46 1 -60 20 -10 38 -10
200 6 112 11 384 5 522 -12 53 -6 88 8 88 35 0 27 -18 38 -82 50 -78 14 -134
45 -155 84 -15 29 -17 75 -17 477 0 479 2 500 54 616 33 73 111 157 171 183
64 29 149 36 195 16 43 -18 52 -29 96 -108 34 -63 67 -87 120 -87 89 0 145 93
117 194 -12 45 -52 84 -118 114 -73 34 -203 35 -306 4 -129 -39 -254 -139
-321 -257 -28 -49 -34 -55 -35 -35 0 14 -2 34 -4 45 -2 11 -7 51 -10 90 -3 38
-8 78 -11 87 -3 9 -7 26 -9 38 -10 54 -37 102 -54 99 -3 -1 -35 -10 -71 -20z"/>
<path d="M22915 17289 c-38 -10 -148 -37 -243 -59 -181 -42 -212 -54 -212 -82
0 -25 15 -30 106 -39 93 -8 129 -25 163 -75 45 -66 48 -106 47 -654 -1 -471
-3 -518 -19 -547 -19 -36 -83 -73 -137 -80 -53 -7 -100 -32 -100 -54 0 -38 30
-42 225 -24 58 6 317 6 390 1 28 -2 78 -7 112 -11 69 -7 103 4 103 34 0 27
-18 38 -83 50 -79 14 -132 46 -153 90 -16 32 -18 81 -19 441 -1 514 7 579 91
707 60 90 140 140 239 148 95 8 142 -21 186 -115 25 -53 62 -82 111 -87 75 -7
124 37 134 119 16 132 -111 221 -301 212 -181 -9 -344 -107 -442 -267 -20 -31
-37 -56 -39 -55 -2 3 -9 61 -20 163 -8 87 -30 166 -51 185 -17 16 -22 16 -88
-1z"/>
<path d="M6280 17274 c-52 -13 -156 -38 -230 -54 -94 -21 -140 -36 -155 -51
l-20 -20 22 -18 c15 -13 41 -19 84 -20 134 -3 196 -64 215 -211 3 -30 6 -266
6 -525 0 -483 -3 -535 -40 -568 -25 -23 -100 -54 -149 -62 -22 -3 -48 -14 -57
-24 -34 -37 7 -65 84 -56 194 21 484 21 645 -1 64 -8 103 14 89 51 -6 14 -23
22 -66 30 -108 20 -164 57 -178 120 -6 22 -10 229 -9 460 0 335 3 434 15 485
45 198 175 324 334 324 83 1 119 -23 160 -104 37 -73 70 -100 122 -100 76 0
126 53 130 137 4 118 -104 195 -272 195 -195 1 -355 -86 -466 -253 -25 -39
-47 -69 -49 -67 -2 2 -6 40 -9 85 -4 45 -8 90 -10 100 -2 10 -7 38 -11 63 -4
25 -13 60 -21 78 -16 39 -30 40 -164 6z"/>
<path d="M9660 17279 c-64 -23 -196 -60 -294 -83 -77 -18 -113 -41 -95 -62 10
-13 31 -19 102 -29 91 -13 132 -59 143 -164 9 -83 9 -1006 0 -1066 -11 -73
-87 -119 -218 -134 -17 -2 -36 -33 -31 -50 6 -22 42 -33 88 -27 46 7 264 19
325 19 71 0 273 -12 325 -19 46 -6 95 9 95 29 0 27 -26 46 -70 52 -64 9 -145
48 -167 81 -17 26 -18 58 -18 469 0 242 4 460 8 484 12 76 79 201 139 259 100
98 185 132 321 129 129 -4 218 -53 268 -150 42 -81 47 -151 46 -666 -2 -439
-4 -489 -19 -517 -20 -37 -78 -68 -158 -85 -63 -13 -80 -24 -80 -50 0 -24 28
-38 70 -34 198 17 367 21 515 11 61 -4 135 -9 166 -11 45 -3 60 0 73 14 26 29
-2 56 -75 70 -83 17 -120 36 -149 78 l-24 35 -1 512 c-1 281 -5 531 -9 556
-31 171 -167 306 -350 345 -61 13 -285 14 -337 2 -55 -14 -116 -39 -179 -74
-67 -38 -183 -146 -216 -201 -20 -36 -34 -41 -35 -14 -5 130 -22 239 -45 285
-17 32 -37 33 -114 6z"/>
<path d="M4630 17275 c-297 -60 -547 -272 -641 -542 -67 -192 -54 -460 30
-640 59 -126 167 -252 281 -330 229 -155 576 -190 831 -84 181 76 364 257 450
446 79 174 96 405 43 562 -48 142 -123 263 -223 362 -108 107 -230 179 -366
217 -79 22 -316 27 -405 9z m313 -79 c208 -73 321 -259 356 -586 8 -78 6 -249
-4 -343 -37 -352 -214 -563 -477 -569 -281 -8 -451 168 -507 522 -25 155 -20
374 11 510 5 25 12 55 14 68 21 109 115 261 210 339 98 80 265 104 397 59z"/>
<path d="M8165 17279 c-16 -5 -41 -11 -55 -13 -72 -12 -204 -77 -280 -137
-165 -130 -270 -295 -326 -509 -18 -70 -25 -266 -11 -357 30 -209 188 -430
388 -542 211 -118 529 -136 762 -42 128 51 222 118 266 191 37 61 21 131 -25
113 -11 -3 -49 -34 -85 -68 -94 -88 -167 -127 -284 -151 -91 -19 -263 7 -348
54 -53 28 -158 126 -193 177 -61 93 -109 220 -122 325 -8 69 -8 291 1 313 6
16 52 17 555 17 456 0 551 2 567 14 15 11 20 27 21 72 1 79 -10 126 -51 209
-75 152 -239 276 -428 324 -77 20 -294 26 -352 10z m306 -96 c93 -42 160 -125
185 -232 19 -80 18 -144 -4 -171 l-19 -23 -371 0 c-205 0 -375 2 -378 5 -10
11 27 144 58 208 36 75 123 167 187 200 97 49 247 55 342 13z"/>
<path d="M12100 17271 c-173 -37 -313 -112 -431 -230 -200 -202 -288 -465
-249 -751 36 -265 161 -457 374 -574 59 -33 180 -73 244 -82 26 -3 56 -8 67
-10 40 -9 235 -5 296 6 192 33 341 119 373 215 34 98 -46 119 -113 29 -74 -98
-172 -137 -346 -137 -89 0 -123 4 -175 22 -176 62 -297 216 -346 442 -14 64
-19 136 -18 259 0 167 9 235 46 355 35 114 98 219 173 287 134 122 399 146
472 42 11 -16 34 -59 52 -96 42 -88 80 -113 173 -109 62 2 107 86 84 156 -26
81 -131 150 -269 179 -101 20 -304 19 -407 -3z"/>
<path d="M13729 17286 c-2 -2 -20 -6 -39 -9 -249 -36 -499 -246 -609 -512 -52
-124 -71 -231 -67 -370 2 -66 7 -133 10 -150 96 -457 560 -722 1051 -598 206
52 385 187 385 290 -1 72 -38 66 -134 -24 -119 -111 -226 -155 -376 -155 -105
1 -145 10 -240 55 -99 47 -197 150 -253 269 -25 51 -50 116 -56 143 -6 28 -14
61 -17 75 -8 35 -13 246 -7 303 l5 47 554 0 c551 0 554 0 575 21 19 19 21 29
15 83 -8 89 -14 115 -42 175 -69 151 -236 285 -421 337 -52 15 -322 31 -334
20z m287 -111 c107 -52 172 -163 180 -306 6 -119 33 -111 -393 -111 -197 0
-366 1 -376 1 -16 1 -18 7 -13 39 20 141 117 297 225 360 108 63 268 70 377
17z"/>
<path d="M18467 17274 c-132 -25 -243 -73 -342 -146 -181 -134 -288 -299 -330
-508 -21 -101 -15 -298 11 -395 20 -74 72 -189 113 -249 50 -72 210 -226 235
-226 5 0 20 -9 34 -19 59 -42 200 -87 327 -106 39 -6 201 -7 240 -1 232 32
409 138 564 339 54 71 95 149 125 237 36 108 38 122 42 255 3 143 -14 221 -76
350 -122 249 -330 415 -590 470 -81 17 -263 17 -353 -1z m288 -71 c202 -60
334 -249 374 -538 17 -123 10 -357 -13 -490 -33 -182 -123 -338 -235 -409
-182 -115 -465 -79 -582 75 -13 17 -29 36 -34 42 -23 27 -64 116 -84 181 -20
66 -27 96 -38 161 -9 59 -12 371 -4 415 5 25 12 63 15 85 10 64 61 201 97 261
67 111 158 187 264 220 54 16 179 15 240 -3z"/>
<path d="M24744 17279 c-300 -51 -574 -313 -654 -624 -27 -107 -32 -141 -31
-247 3 -529 463 -876 1022 -773 90 17 237 83 314 140 62 46 104 103 112 150
12 77 -56 80 -114 4 -21 -27 -119 -99 -169 -123 -111 -53 -271 -63 -394 -24
-107 33 -216 120 -287 227 -78 117 -124 291 -123 466 0 55 2 109 4 120 3 11 5
28 5 38 1 16 34 17 554 17 451 0 557 3 572 14 30 21 24 149 -12 238 -68 174
-248 320 -455 367 -90 21 -254 26 -344 10z m306 -96 c62 -31 123 -90 153 -149
29 -59 39 -99 42 -178 4 -102 23 -98 -406 -98 -201 -1 -371 2 -376 5 -15 9 20
134 59 210 53 106 130 178 228 215 79 29 235 27 300 -5z"/>
<path d="M26201 17268 c-179 -55 -287 -197 -296 -389 -11 -215 101 -356 425
-534 208 -114 310 -197 354 -290 79 -162 -67 -345 -279 -350 -196 -5 -352 129
-440 378 -15 43 -32 80 -36 83 -5 3 -17 1 -26 -5 -17 -8 -18 -29 -18 -248 0
-131 4 -244 8 -250 13 -21 42 -15 82 17 21 17 43 30 50 30 7 0 55 -16 106 -36
163 -63 285 -74 444 -40 101 21 219 100 273 181 59 89 75 147 79 281 6 258
-62 360 -342 509 -261 139 -399 232 -434 295 -28 50 -37 118 -21 166 48 152
280 192 432 75 45 -35 148 -174 148 -202 1 -8 11 -32 24 -54 23 -40 50 -55 68
-37 8 8 12 217 9 390 -1 44 -22 50 -79 23 -69 -32 -79 -32 -189 -1 -126 35
-245 38 -342 8z"/>
<path d="M27595 17276 c-147 -35 -269 -150 -305 -284 -20 -78 -23 -176 -5
-244 38 -150 134 -244 404 -397 229 -129 322 -205 366 -297 25 -53 23 -133 -4
-186 -30 -57 -47 -75 -106 -113 -105 -68 -244 -68 -368 -2 -96 51 -185 167
-236 310 -37 101 -46 115 -68 101 -16 -10 -18 -32 -21 -240 -1 -126 0 -239 3
-251 8 -32 38 -29 90 8 50 36 55 35 160 -9 102 -42 168 -56 276 -55 165 1 289
47 385 141 101 99 140 216 131 392 -8 145 -46 238 -128 317 -30 28 -211 143
-225 143 -11 0 -242 135 -304 178 -117 81 -149 131 -147 228 3 81 32 124 110
164 52 26 68 29 136 27 147 -5 246 -81 333 -259 27 -53 53 -100 58 -103 6 -3
19 -3 30 0 19 6 20 15 20 205 0 109 -3 205 -6 214 -8 22 -23 20 -84 -8 -57
-27 -59 -27 -198 10 -104 27 -213 31 -297 10z"/>
<path d="M8496 14528 c-111 -21 -196 -116 -241 -270 -12 -43 -20 -56 -33 -54
-22 4 -62 -11 -62 -23 0 -5 16 -12 36 -15 42 -8 41 7 0 -216 -14 -75 -27 -149
-30 -165 -3 -17 -8 -39 -10 -50 -2 -11 -7 -40 -11 -65 -11 -68 -44 -148 -67
-164 -18 -13 -25 -13 -57 0 -19 8 -43 22 -53 31 -10 9 -21 14 -24 10 -9 -9
-25 -89 -19 -95 3 -3 28 -8 55 -12 138 -18 226 81 271 305 7 33 14 65 15 70 1
6 17 82 35 170 17 88 34 162 36 165 2 2 32 5 66 6 81 2 77 0 77 29 0 24 -2 25
-66 25 l-66 0 7 38 c26 142 87 228 165 234 33 3 35 1 54 -49 10 -29 24 -53 32
-53 7 0 17 23 24 57 7 32 14 63 17 69 8 23 -81 36 -151 22z"/>
<path d="M12520 14530 c-112 -21 -221 -142 -245 -272 -8 -42 -25 -60 -52 -58
-55 6 -62 -24 -8 -34 19 -4 35 -10 35 -14 0 -4 -6 -41 -14 -82 -14 -76 -21
-113 -32 -172 -47 -271 -57 -315 -81 -361 -23 -45 -50 -49 -110 -16 l-52 29
-11 -38 c-14 -52 -13 -60 11 -67 47 -15 120 -6 164 19 87 51 115 126 190 496
21 102 40 187 42 190 2 2 34 5 71 5 66 0 67 1 70 28 l3 27 -66 0 -67 0 7 43
c19 111 90 225 144 228 11 1 28 2 38 3 11 1 21 -14 33 -49 21 -64 46 -71 55
-16 4 23 6 42 5 43 -1 2 3 15 9 30 9 25 8 28 -12 33 -42 10 -92 12 -127 5z"/>
<path d="M13952 14517 c-92 -20 -115 -39 -56 -45 16 -2 32 -7 36 -11 5 -4 -4
-63 -18 -131 -14 -69 -27 -132 -29 -140 -27 -131 -78 -380 -81 -395 -16 -76
-16 -83 8 -87 55 -8 76 2 83 40 3 21 17 87 30 147 13 61 28 135 34 165 11 53
13 56 58 74 58 24 128 26 149 4 9 -9 16 -31 16 -50 1 -30 -2 -49 -16 -113 -3
-11 -12 -54 -21 -95 -25 -112 -25 -140 -4 -161 22 -22 76 -24 127 -6 41 14 43
30 5 35 -52 7 -52 11 -17 179 39 185 40 207 14 250 -36 60 -121 66 -229 17
-30 -13 -55 -23 -56 -22 -2 2 12 73 30 158 42 200 43 210 36 209 -3 -1 -48
-10 -99 -22z"/>
<path d="M15660 14520 c-41 -10 -76 -19 -77 -19 -2 -1 -7 -1 -13 -1 -5 0 -10
-7 -10 -15 0 -10 10 -15 34 -15 19 0 37 -3 39 -7 2 -5 -2 -37 -10 -73 -8 -36
-18 -85 -22 -110 -5 -25 -27 -135 -50 -245 -55 -263 -58 -290 -35 -317 16 -17
27 -19 75 -14 31 3 63 8 72 12 26 10 20 32 -8 32 -14 0 -32 5 -41 13 -17 14
-18 12 21 194 9 44 18 89 21 100 2 11 6 31 9 45 3 14 7 36 10 50 4 21 26 128
39 195 3 11 11 49 20 85 17 71 20 111 9 109 -5 -1 -42 -9 -83 -19z"/>
<path d="M4629 14476 c-47 -34 -37 -108 15 -118 52 -10 96 55 68 100 -13 20
-66 31 -83 18z"/>
<path d="M15963 14482 c-44 -7 -64 -59 -38 -99 32 -48 121 -14 111 42 -8 45
-33 64 -73 57z"/>
<path d="M4270 14353 c-20 -3 -30 -17 -54 -73 -16 -39 -29 -70 -30 -71 0 0
-21 -3 -46 -5 -25 -3 -47 -7 -49 -10 -8 -7 14 -24 37 -29 12 -2 26 -6 30 -9 5
-3 -6 -69 -25 -148 -45 -194 -49 -246 -24 -278 18 -22 27 -25 88 -24 97 1 163
22 163 50 0 10 -13 12 -49 7 -94 -11 -125 13 -111 86 9 46 60 271 66 292 3 12
18 15 72 13 71 -2 92 7 92 37 0 17 -8 19 -76 19 -67 0 -75 2 -70 18 9 29 25
106 26 120 0 6 -3 11 -7 11 -5 -1 -19 -4 -33 -6z"/>
<path d="M2300 14220 c-86 -16 -170 -79 -215 -161 -27 -49 -30 -63 -30 -144 0
-102 14 -138 68 -179 68 -52 183 -48 270 10 68 45 64 77 -6 45 -51 -23 -122
-27 -162 -9 -86 39 -92 216 -11 322 31 42 65 61 120 70 56 9 71 1 86 -47 31
-105 41 -108 65 -16 21 76 19 88 -12 100 -34 13 -127 18 -173 9z"/>
<path d="M2640 14217 c-29 -8 -46 -18 -48 -29 -2 -13 1 -16 11 -12 9 3 25 0
37 -6 18 -10 21 -18 16 -48 -7 -47 -53 -278 -71 -354 l-13 -58 52 0 52 0 17
88 c10 48 20 98 22 112 14 74 37 178 45 197 12 30 84 42 111 17 10 -9 19 -21
19 -25 0 -4 5 -20 10 -35 8 -19 14 -24 21 -17 13 13 48 172 39 178 -14 9 -78
-8 -137 -35 -34 -16 -60 -23 -58 -17 7 20 -22 48 -52 52 -15 2 -48 -2 -73 -8z"/>
<path d="M3209 14217 c-93 -26 -183 -119 -213 -219 -17 -55 -13 -165 7 -204
20 -38 54 -70 92 -84 37 -15 117 -14 164 1 53 18 121 67 115 84 -5 11 -13 10
-51 -6 -54 -23 -133 -25 -173 -4 -38 20 -60 63 -60 118 l0 44 58 6 c133 14
235 56 263 109 59 110 -53 196 -202 155z m105 -57 c6 -6 10 -26 10 -45 0 -61
-62 -100 -188 -121 -41 -6 -43 0 -21 53 23 54 63 103 99 119 32 14 83 11 100
-6z"/>
<path d="M3717 14219 c-52 -12 -86 -31 -131 -76 -105 -102 -134 -292 -59 -391
51 -68 116 -71 203 -8 55 40 62 42 54 23 -2 -7 5 -26 17 -41 21 -27 25 -28 83
-22 33 3 64 10 69 15 14 14 -1 31 -28 31 -37 0 -44 24 -28 104 8 39 17 85 19
101 3 17 17 79 30 139 14 60 26 114 27 120 1 6 -7 9 -18 6 -25 -5 -62 -5 -140
2 -33 3 -77 1 -98 -3z m132 -55 c5 -5 -6 -80 -24 -167 -34 -170 -34 -169 -111
-207 -35 -17 -46 -19 -68 -9 -59 27 -73 161 -27 265 41 93 101 137 174 131 27
-2 52 -8 56 -13z"/>
<path d="M4540 14215 c-28 -7 -45 -17 -45 -25 0 -8 6 -14 14 -12 20 4 49 -7
54 -22 3 -7 -12 -95 -33 -197 -21 -101 -36 -195 -33 -209 8 -48 55 -62 136
-39 45 12 51 39 7 39 -16 0 -33 7 -38 16 -5 9 3 70 24 167 18 84 36 180 40
213 6 59 5 62 -17 70 -34 12 -58 11 -109 -1z"/>
<path d="M4851 14215 c-41 -10 -68 -33 -42 -36 6 -1 16 -3 21 -4 6 -1 16 -3
24 -4 24 -2 24 -24 0 -141 -13 -62 -26 -123 -28 -134 -2 -12 -7 -32 -10 -46
-3 -14 -8 -36 -10 -50 -3 -14 -8 -40 -12 -57 l-6 -33 50 0 50 0 16 73 c8 39
27 130 41 202 15 71 27 130 28 131 84 38 160 48 187 25 32 -25 32 -54 -1 -200
-40 -181 -42 -198 -17 -223 18 -18 29 -20 80 -15 78 7 114 36 55 44 -58 8 -58
10 -17 196 17 76 30 154 30 175 0 103 -112 139 -245 78 -67 -30 -65 -30 -65
-12 0 36 -56 50 -129 31z"/>
<path d="M5637 14218 c-86 -18 -163 -85 -205 -177 -34 -73 -38 -207 -7 -258
55 -93 143 -103 243 -26 l35 26 -7 -39 c-4 -21 -19 -73 -32 -116 -42 -131 -95
-155 -214 -96 -36 18 -69 32 -74 32 -10 1 -36 -93 -27 -98 23 -14 125 -32 170
-29 89 5 155 49 207 138 26 45 67 158 78 215 10 54 12 67 40 195 14 66 32 146
39 177 8 32 12 60 9 62 -2 3 -14 0 -25 -5 -14 -8 -41 -8 -91 -1 -79 12 -85 12
-139 0z m134 -55 c6 -6 -3 -67 -24 -168 l-33 -159 -50 -28 c-62 -35 -94 -35
-124 -3 -20 21 -25 39 -28 95 -5 78 8 125 51 191 42 64 88 91 150 86 27 -2 52
-8 58 -14z"/>
<path d="M6474 14221 c-92 -23 -180 -107 -215 -206 -26 -75 -27 -169 -1 -227
21 -49 34 -62 83 -82 42 -18 91 -3 149 43 47 37 50 38 50 8 0 -53 72 -73 147
-42 39 17 38 27 -5 33 -46 6 -51 31 -27 134 8 35 17 79 20 98 3 19 17 82 31
138 13 57 24 106 24 108 0 2 -12 -1 -27 -7 -16 -6 -46 -8 -68 -4 -68 11 -129
14 -161 6z m127 -58 c9 -9 2 -57 -27 -188 -3 -11 -10 -46 -16 -78 -11 -61 -30
-82 -103 -112 -43 -19 -67 -9 -91 37 -48 92 2 270 94 334 30 21 45 25 85 21
27 -2 53 -9 58 -14z"/>
<path d="M7257 14215 c-89 -23 -140 -77 -140 -148 0 -63 29 -99 111 -137 87
-41 122 -74 116 -108 -10 -54 -61 -80 -144 -74 -53 4 -56 6 -74 71 -9 34 -23
61 -30 61 -7 0 -13 -6 -13 -12 0 -11 -14 -67 -29 -120 -10 -34 156 -62 251
-42 87 18 149 85 147 157 -3 61 -24 84 -126 133 -102 49 -126 75 -110 121 13
38 65 62 126 58 55 -2 63 -9 79 -72 13 -49 36 -57 45 -15 3 15 10 43 15 62 5
19 9 40 9 46 0 24 -163 38 -233 19z"/>
<path d="M7766 14212 c-65 -21 -147 -97 -175 -162 -66 -154 -33 -312 75 -347
38 -13 86 2 146 46 43 32 43 32 46 9 9 -57 72 -75 149 -43 39 17 38 27 -5 32
-26 4 -55 29 -47 42 2 4 11 45 19 91 24 132 59 293 71 322 6 15 0 17 -47 16
-29 0 -82 2 -118 5 -45 3 -80 0 -114 -11z m139 -42 c23 -9 26 -14 20 -38 -4
-15 -9 -40 -12 -57 -3 -16 -14 -70 -25 -120 -11 -49 -20 -96 -21 -103 -1 -16
-43 -47 -92 -68 -33 -14 -39 -13 -61 0 -13 9 -28 26 -35 37 -24 46 -17 164 13
229 50 106 131 151 213 120z"/>
<path d="M8682 14211 c-125 -43 -207 -159 -211 -301 -4 -135 63 -210 188 -210
84 0 201 54 201 93 0 13 -6 13 -50 -4 -70 -26 -144 -27 -178 -2 -34 25 -54 66
-58 116 -3 42 -2 43 71 51 101 12 185 42 234 85 19 16 25 34 29 74 4 50 2 55
-28 80 -17 15 -39 28 -48 28 -77 6 -107 4 -150 -10z m106 -47 c31 -22 30 -74
-4 -107 -29 -29 -97 -55 -161 -61 l-42 -4 19 51 c22 57 61 103 105 123 40 17
56 17 83 -2z"/>
<path d="M9435 14221 c-54 -9 -114 -41 -138 -73 -11 -15 -22 -48 -24 -75 -5
-43 -2 -53 23 -82 15 -18 59 -48 98 -67 105 -51 131 -94 86 -142 -27 -29 -63
-37 -147 -33 -29 1 -32 5 -50 63 -27 90 -38 88 -60 -12 -15 -64 -11 -73 37
-87 58 -17 165 -18 218 -2 80 24 132 88 132 166 0 38 -51 85 -135 124 -45 20
-86 43 -91 50 -43 54 -6 111 81 125 69 11 90 -1 109 -62 10 -30 22 -54 28 -52
12 4 49 128 42 139 -10 17 -149 31 -209 20z"/>
<path d="M9791 14216 c-44 -12 -67 -35 -37 -37 9 -1 21 -2 27 -3 30 -3 32 -34
10 -142 -12 -60 -23 -119 -25 -130 -3 -12 -13 -64 -25 -115 -11 -52 -22 -107
-25 -123 -3 -16 -11 -55 -17 -85 -7 -31 -12 -62 -12 -70 0 -8 -17 -21 -38 -29
-21 -8 -40 -20 -43 -27 -3 -9 27 -12 128 -12 105 0 133 2 133 13 0 8 -15 17
-33 20 -52 10 -55 19 -32 127 l21 97 50 -3 c140 -11 254 59 315 192 21 45 26
72 26 137 1 94 -17 137 -71 174 -46 31 -93 30 -163 -4 -30 -14 -56 -23 -58
-18 -14 43 -61 56 -131 38z m293 -99 c17 -24 21 -43 21 -111 0 -72 -4 -90 -30
-141 -39 -76 -93 -116 -161 -119 -86 -5 -84 -7 -62 97 11 51 22 106 25 122 7
46 31 147 35 151 16 15 80 33 112 31 30 -1 44 -9 60 -30z"/>
<path d="M10545 14223 c-138 -27 -245 -167 -246 -321 0 -72 5 -95 31 -137 45
-74 111 -85 197 -33 29 18 53 36 53 40 0 4 5 8 10 8 6 0 10 -8 10 -18 0 -10 7
-28 16 -40 18 -27 76 -30 130 -7 41 17 37 35 -7 35 -39 0 -45 18 -30 94 7 33
14 72 17 86 10 54 37 178 50 230 18 71 18 71 -13 59 -16 -6 -45 -8 -68 -3 -49
8 -123 12 -150 7z m100 -53 c29 -11 29 -20 0 -140 -8 -30 -16 -71 -20 -90 -3
-19 -8 -48 -11 -65 -6 -34 -39 -65 -96 -91 -37 -17 -40 -17 -65 3 -33 24 -53
95 -47 161 3 26 19 75 35 110 49 101 124 142 204 112z"/>
<path d="M11100 14212 c-137 -45 -220 -164 -220 -311 1 -94 52 -173 128 -196
40 -12 115 -7 157 10 52 22 105 62 105 81 0 18 1 18 -51 -6 -49 -22 -129 -26
-162 -8 -29 15 -56 47 -63 73 -42 169 80 348 217 319 22 -4 30 -15 44 -62 20
-66 28 -78 42 -60 10 13 33 107 33 134 0 35 -150 52 -230 26z"/>
<path d="M11615 14216 c-66 -21 -101 -43 -144 -92 -84 -96 -110 -247 -58 -336
14 -25 38 -53 52 -62 41 -27 114 -35 175 -19 60 15 135 62 135 83 0 17 -3 17
-62 -5 -64 -23 -129 -22 -161 2 -36 26 -62 79 -62 126 0 35 2 37 33 38 75 2
181 29 239 62 71 39 90 129 38 177 -44 41 -109 50 -185 26z m102 -62 c48 -65
-33 -137 -179 -159 -32 -5 -37 -4 -33 12 12 60 61 130 108 155 38 20 86 16
104 -8z"/>
<path d="M12692 14215 c-61 -19 -104 -51 -140 -104 -94 -142 -65 -329 60 -390
55 -26 149 -28 210 -5 196 76 239 399 64 484 -55 26 -136 32 -194 15z m139
-58 c36 -23 54 -77 53 -163 0 -71 -4 -90 -33 -148 -36 -74 -66 -96 -128 -96
-48 0 -75 19 -98 66 -49 104 1 304 87 348 35 17 85 14 119 -7z"/>
<path d="M13160 14216 c-31 -8 -46 -17 -48 -30 -2 -11 0 -16 7 -12 5 4 22 4
36 0 30 -7 31 -20 11 -119 -8 -38 -17 -81 -20 -95 -2 -14 -14 -71 -26 -128
-12 -57 -20 -109 -17 -115 3 -8 21 -11 49 -9 l45 4 38 191 c21 106 40 197 42
204 5 13 26 23 66 30 27 4 67 -18 67 -38 0 -4 5 -20 10 -35 8 -19 14 -24 21
-17 14 14 48 172 38 179 -13 8 -98 -15 -149 -41 -42 -21 -47 -22 -43 -6 10 39
-48 56 -127 37z"/>
<path d="M14612 14212 c-113 -41 -196 -152 -208 -280 -14 -148 64 -238 200
-233 78 2 205 70 188 99 -7 10 -16 9 -43 -5 -19 -9 -62 -19 -95 -21 -70 -5
-105 11 -130 60 -14 26 -22 103 -13 112 2 2 33 7 69 11 81 9 175 39 216 71 69
52 64 146 -10 186 -36 19 -119 19 -174 0z m110 -52 c61 -47 -5 -137 -113 -155
-19 -3 -47 -8 -63 -11 -27 -6 -28 -5 -21 27 10 45 47 102 82 126 54 38 80 41
115 13z"/>
<path d="M15109 14210 c-122 -42 -202 -165 -203 -315 -1 -114 48 -189 129
-195 38 -3 58 5 117 46 l47 33 11 -34 c15 -47 53 -57 133 -34 42 11 50 37 11
37 -52 0 -57 18 -35 128 11 54 22 110 25 124 2 14 12 59 21 100 32 137 32 131
-3 119 -22 -8 -46 -7 -85 0 -64 14 -106 11 -168 -9z m163 -54 c4 -5 5 -13 3
-16 -2 -4 -18 -73 -34 -154 -32 -158 -33 -159 -106 -196 -52 -25 -77 -18 -105
32 -19 34 -22 51 -18 112 10 153 123 276 223 243 17 -6 33 -15 37 -21z"/>
<path d="M15855 14215 c-50 -15 -58 -40 -14 -41 17 -1 34 -7 39 -13 4 -7 -1
-51 -11 -99 -11 -48 -21 -96 -23 -108 -2 -11 -12 -60 -22 -108 -17 -79 -17
-90 -3 -114 13 -24 21 -27 65 -26 63 0 104 11 104 27 0 7 -12 14 -27 15 -55 4
-57 15 -23 173 53 252 54 260 38 282 -17 23 -70 28 -123 12z"/>
<path d="M16195 14223 c-81 -16 -102 -38 -45 -46 44 -7 45 -25 11 -193 -18
-88 -35 -170 -37 -184 -3 -14 -9 -41 -13 -60 -7 -34 -7 -35 18 -34 14 1 38 3
52 3 24 1 27 6 39 74 8 39 15 77 16 82 19 79 46 215 47 232 1 22 85 56 139 57
79 1 93 -36 64 -166 -8 -35 -17 -74 -20 -88 -3 -14 -11 -51 -18 -83 -11 -50
-10 -62 3 -85 13 -24 21 -27 65 -26 64 0 106 12 101 27 -2 7 -14 14 -28 15
-34 5 -50 21 -44 46 36 164 55 260 59 299 14 126 -92 170 -243 101 -31 -14
-57 -21 -59 -16 -12 37 -55 55 -107 45z"/>
<path d="M16914 14205 c-93 -41 -151 -107 -180 -205 -39 -131 -5 -249 84 -286
43 -19 83 -10 149 32 43 27 54 31 50 17 -3 -10 -11 -43 -18 -73 -17 -75 -43
-135 -73 -165 -36 -36 -83 -33 -167 11 -38 20 -71 35 -72 33 -8 -11 -25 -95
-21 -101 9 -14 89 -31 150 -30 134 0 220 80 277 257 14 43 97 408 114 502 l6
33 -32 -11 c-19 -7 -46 -8 -69 -3 -72 16 -147 12 -198 -11z m151 -35 c31 -7
32 -14 4 -153 -16 -78 -31 -152 -34 -163 -5 -22 -96 -74 -129 -74 -46 0 -74
41 -80 119 -7 91 41 206 103 250 34 25 92 40 111 31 8 -5 20 -9 25 -10z"/>
<path d="M937 13810 c-34 -27 -36 -71 -5 -100 25 -23 40 -25 71 -9 29 15 37
28 37 60 0 57 -57 85 -103 49z"/>
<path d="M1220 13807 c-26 -23 -26 -71 0 -97 23 -23 27 -24 68 -9 46 16 57 74
20 108 -25 24 -62 24 -88 -2z"/>
<path d="M1520 13817 c-20 -10 -26 -21 -28 -54 -3 -35 1 -44 20 -57 47 -31
100 -4 104 54 3 50 -48 81 -96 57z"/>
<path d="M20416 13463 c1 -158 5 -659 8 -1113 4 -454 9 -1146 11 -1538 3 -393
7 -718 10 -722 3 -5 1 -11 -5 -15 -6 -4 -7 -13 -2 -21 4 -8 6 -30 4 -49 l-4
-35 -82 -1 c-129 -1 -1234 -7 -2496 -13 -641 -3 -1577 -8 -2080 -11 -1528 -8
-2769 -15 -3935 -21 -610 -3 -1138 -6 -1173 -6 -34 -1 -65 2 -68 5 -3 3 -18 2
-32 -1 -15 -4 -288 -7 -607 -7 l-580 0 0 403 0 403 -55 -3 -55 -3 -1 -457 0
-458 320 0 c545 -1 3798 -10 5686 -16 987 -3 1800 -5 1805 -5 6 0 21 2 35 4
14 2 37 0 51 -4 15 -4 32 -3 40 1 7 5 17 7 21 4 4 -3 766 -7 1693 -10 l1685
-5 0 1976 c0 1573 -3 1975 -12 1976 -7 0 -21 2 -30 4 -9 2 -34 6 -55 9 -21 3
-52 8 -68 11 l-31 7 2 -289z"/>
<path d="M20839 13706 c-2 -3 -4 -112 -3 -243 1 -131 5 -593 8 -1028 13 -1720
18 -2369 19 -2573 2 -117 0 -217 -3 -222 -3 -5 -461 -11 -1050 -15 -1461 -8
-2662 -14 -4025 -20 -643 -4 -1489 -8 -1880 -10 -2063 -11 -3550 -17 -4225
-18 l-755 -2 0 433 0 433 -60 -3 -60 -3 0 -492 0 -493 355 0 c195 -1 992 -3
1770 -5 778 -2 2448 -6 3710 -9 1262 -4 3220 -8 4350 -11 l2056 -6 0 2130 0
2130 -36 6 c-19 3 -53 8 -75 10 -22 3 -51 8 -65 11 -14 2 -28 3 -31 0z"/>
</g>
</svg>
